<svg xmlns="http://www.w3.org/2000/svg" width="256" height="256" viewBox="0 0 256 256">
  <defs>
    <linearGradient id="bg" x1="0%" y1="0%" x2="100%" y2="100%">
      <stop offset="0%" style="stop-color:#005fb8;stop-opacity:1" />
      <stop offset="100%" style="stop-color:#0078d4;stop-opacity:1" />
    </linearGradient>
  </defs>
  <rect width="256" height="256" rx="48" fill="url(#bg)"/>
  <!-- 笔记图标 -->
  <g transform="translate(128,128)">
    <rect x="-48" y="-60" width="96" height="120" rx="12" fill="white" opacity="0.95"/>
    <rect x="-36" y="-42" width="72" height="6" rx="3" fill="#005fb8" opacity="0.8"/>
    <rect x="-36" y="-28" width="56" height="6" rx="3" fill="#005fb8" opacity="0.5"/>
    <rect x="-36" y="-14" width="64" height="6" rx="3" fill="#005fb8" opacity="0.5"/>
    <rect x="-36" y="0" width="48" height="6" rx="3" fill="#005fb8" opacity="0.3"/>
    <rect x="-36" y="14" width="60" height="6" rx="3" fill="#005fb8" opacity="0.3"/>
    <rect x="-36" y="28" width="40" height="6" rx="3" fill="#005fb8" opacity="0.2"/>
  </g>
  <!-- 笔 -->
  <g transform="translate(148,96) rotate(45)">
    <rect x="-4" y="-24" width="8" height="48" rx="4" fill="#ffb900"/>
    <polygon points="-4,24 4,24 10,36 -4,36" fill="#ffb900"/>
    <polygon points="-4,24 4,24 4,28 -4,28" fill="#fff" opacity="0.5"/>
  </g>
</svg>